# xmcd
#
# Track frame offsets: 
#        150
#        11278
#        22663
#        35916
#        51653
#        69614
#        85525
#        94427
#        114947
#        132273
#
# Disc length: 1982 seconds
#
# Revision: 1
# Processed by: cddbd v1.5.2PL0 Copyright (c) Steve Scherf et al.
# Submitted via: ExactAudioCopy v0.99pb5
#
DISCID=7c07bc0a
DTITLE=Michael Fracasso - Saint Monday
DYEAR=2011
DGENRE=Americana
TTITLE0=Michael Fracasso - While The Night Is Young
TTITLE1=Michael Fracasso - Eloise
TTITLE2=Michael Fracasso - Little Lover
TTITLE3=Michael Fracasso - Elizabeth Lee
TTITLE4=Michael Fracasso - Saint Monday
TTITLE5=Michael Fracasso with Patty Griffin - Ada, OK
TTITLE6=Michael Fracasso - Broken Souvenirs
TTITLE7=Michael Fracasso - Gypsy Moth
TTITLE8=Michael Fracasso - FCC - Working Class Hero
TTITLE9=Michael Fracasso with Jim Lewis - Another Million
EXTD=
EXTT0=
EXTT1=
EXTT2=
EXTT3=
EXTT4=
EXTT5=
EXTT6=
EXTT7=
EXTT8=
EXTT9=
PLAYORDER=
